<svg width="16" height="14" viewBox="0 0 16 14" fill="none" xmlns="http://www.w3.org/2000/svg">
<path d="M0.811297 12.3597V3.07451C0.811297 2.817 0.901288 2.59911 1.08127 2.42084C1.26125 2.24256 1.48623 2.15342 1.7562 2.15342H3.63101C3.88099 2.15342 4.10097 2.06429 4.29095 1.88601C4.48093 1.70773 4.57092 1.48489 4.56092 1.21748C4.55092 0.950064 4.64091 0.732171 4.8309 0.5638C5.02088 0.395429 5.24585 0.306291 5.50583 0.296387H11.1303C11.3802 0.296387 11.6002 0.385524 11.7902 0.5638C11.9802 0.742076 12.0702 0.959968 12.0602 1.21748C12.0502 1.47499 12.1402 1.69783 12.3301 1.88601C12.5201 2.07419 12.7451 2.16333 13.0051 2.15342H14.8799C15.1299 2.15342 15.3498 2.24256 15.5398 2.42084C15.7298 2.59911 15.8198 2.817 15.8098 3.07451V12.3597C15.8098 12.6172 15.7198 12.8401 15.5398 13.0282C15.3598 13.2164 15.1399 13.3055 14.8799 13.2956H1.7562C1.49623 13.2956 1.27125 13.2065 1.08127 13.0282C0.891289 12.85 0.801298 12.6271 0.811297 12.3597ZM3.63101 6.78859C3.63101 7.42246 3.751 8.02661 3.99098 8.60105C4.23096 9.1755 4.56592 9.66576 4.99588 10.0718C5.42584 10.4779 5.92579 10.8097 6.49573 11.0672C7.06567 11.3247 7.67061 11.4485 8.31055 11.4386C9.16046 11.4386 9.94538 11.2306 10.6653 10.8146C11.3852 10.3987 11.9552 9.83413 12.3751 9.12103C12.7951 8.40792 13.0051 7.63044 13.0051 6.78859C13.0051 5.94673 12.7951 5.1742 12.3751 4.47101C11.9552 3.76781 11.3852 3.20327 10.6653 2.77739C9.94538 2.35151 9.16046 2.14352 8.31055 2.15342C7.68061 2.15342 7.07567 2.27723 6.49573 2.52483C5.91579 2.77244 5.41584 3.09927 4.99588 3.50535C4.57592 3.91142 4.24095 4.40663 3.99098 4.99098C3.741 5.57532 3.62102 6.17453 3.63101 6.78859ZM5.50583 6.78859C5.50583 6.02596 5.7758 5.37229 6.31575 4.82756C6.85569 4.28283 7.52063 4.01046 8.31055 4.01046C9.10047 4.01046 9.7654 4.28283 10.3053 4.82756C10.8453 5.37229 11.1203 6.02596 11.1303 6.78859C11.1403 7.55121 10.8653 8.20984 10.3053 8.76447C9.7454 9.31911 9.08047 9.59147 8.31055 9.58157C7.54062 9.57167 6.87569 9.2993 6.31575 8.76447C5.7558 8.22965 5.48583 7.57102 5.50583 6.78859Z" fill="currentColor"/>
</svg>
