<svg width="20" height="21" viewBox="0 0 20 21" fill="none" xmlns="http://www.w3.org/2000/svg">
<path d="M4.93896 4.87575C8.12802 2.61329 12.6938 2.79416 15.6474 5.31343C18.633 7.86022 19.0541 12.0236 16.5876 15.016C14.2009 17.9114 9.86222 18.7987 6.33722 17.2071L2.64227 17.9937C2.61415 17.9996 2.58585 18.0028 2.55793 18.0052C2.5544 18.0055 2.55082 18.0049 2.54727 18.0052C2.51641 18.0074 2.4861 18.0054 2.45583 18.0034C2.4325 18.0019 2.4091 18.0012 2.3857 17.9972C2.37829 17.9959 2.37084 17.9952 2.3635 17.9937C2.33718 17.9882 2.31062 17.9819 2.28449 17.9732C2.27564 17.9703 2.26739 17.9659 2.25874 17.9626C2.25066 17.9595 2.24273 17.9562 2.23477 17.9528C2.20353 17.9396 2.17425 17.9239 2.146 17.9066C2.12367 17.893 2.1036 17.8766 2.08296 17.8605C2.06923 17.8498 2.0549 17.8402 2.04213 17.8285C2.02428 17.8123 2.0085 17.7943 1.99241 17.7761C1.97815 17.76 1.96331 17.7447 1.95068 17.7273C1.93689 17.7084 1.92527 17.6882 1.9134 17.6678C1.90324 17.6504 1.89356 17.6329 1.88499 17.6146C1.87032 17.5832 1.85673 17.5511 1.84681 17.5169C1.84492 17.5104 1.84319 17.5039 1.84149 17.4974C1.83898 17.4877 1.8356 17.478 1.8335 17.4681C1.82757 17.4402 1.82436 17.4123 1.82196 17.3846C1.8215 17.3793 1.8214 17.374 1.82107 17.3687C1.81946 17.3432 1.82074 17.3182 1.82196 17.2932C1.82495 17.2327 1.83299 17.1714 1.85303 17.1112L2.83314 14.17C0.913679 11.0226 1.81573 7.09152 4.93896 4.87575ZM14.7623 6.35036C12.2908 4.24243 8.4156 4.08161 5.7282 5.98815C3.07115 7.87319 2.43312 11.1588 4.14795 13.695C4.26662 13.8706 4.29753 14.0914 4.23051 14.2925L3.52384 16.4107L6.27508 15.8266L6.38694 15.8124C6.49951 15.8074 6.61211 15.8301 6.71453 15.8798C9.75086 17.3539 13.5278 16.5844 15.5356 14.1487C17.5127 11.75 17.2015 8.43088 14.7623 6.35036Z" fill="currentColor" fill-opacity="0.9"/>
<path d="M10 10.6594V10.6686" stroke="currentColor" stroke-opacity="0.9" stroke-width="1.5" stroke-linecap="round" stroke-linejoin="round"/>
<path d="M6.66602 10.6594V10.6686" stroke="currentColor" stroke-opacity="0.9" stroke-width="1.5" stroke-linecap="round" stroke-linejoin="round"/>
<path d="M13.332 10.6594V10.6686" stroke="currentColor" stroke-opacity="0.9" stroke-width="1.5" stroke-linecap="round" stroke-linejoin="round"/>
</svg>
