<svg width="25" height="26" viewBox="0 0 25 26" fill="none" xmlns="http://www.w3.org/2000/svg">
<path d="M21.2653 4.41325C20.4371 3.58468 19.8701 2.13778 19.5888 0.821289C19.307 2.13805 18.7407 3.58525 17.9121 4.41382C17.0839 5.24182 15.6365 5.80874 14.3203 6.09065C15.6371 6.37199 17.0841 6.93858 17.9124 7.76718C18.7407 8.59545 19.3076 10.0426 19.5894 11.3591C19.8707 10.0424 20.4375 8.59518 21.2656 7.76661C22.0939 6.93834 23.5412 6.37169 24.8574 6.08978C23.541 5.80843 22.0939 5.24155 21.2653 4.41325Z" fill="currentColor"/>
<path fill-rule="evenodd" clip-rule="evenodd" d="M7.88599 17.4376C9.72188 17.4376 11.2037 15.9556 11.2037 14.1198V7.48427C11.2037 5.64844 9.72188 4.1665 7.88599 4.1665C6.0501 4.1665 4.56822 5.64844 4.56822 7.48427V14.1198C4.56822 15.9556 6.0501 17.4376 7.88599 17.4376ZM6.78012 7.48427C6.78012 6.87601 7.27777 6.37835 7.88599 6.37835C8.49421 6.37835 8.99186 6.87601 8.99186 7.48427V14.1198C8.99186 14.7391 8.50531 15.2257 7.88599 15.2257C7.27777 15.2257 6.78012 14.728 6.78012 14.1198V7.48427ZM13.7474 14.1198H15.6274C15.6274 17.8909 12.6194 21.0097 8.99186 21.5516V25.179H6.78012V21.5516C3.15264 21.0097 0.144531 17.8909 0.144531 14.1198H2.0246C2.0246 17.4376 4.83365 19.76 7.88599 19.76C10.9383 19.76 13.7474 17.4376 13.7474 14.1198Z" fill="currentColor"/>
</svg>
