<svg width="20" height="21" viewBox="0 0 20 21" fill="none" xmlns="http://www.w3.org/2000/svg">
<path fill-rule="evenodd" clip-rule="evenodd" d="M7.49603 1.88575C7.6419 1.74084 7.83973 1.65942 8.04601 1.65942H14.2682C15.5569 1.65942 16.6016 2.69731 16.6016 3.97761V16.3412C16.6016 17.6216 15.5569 18.6594 14.2682 18.6594H4.9349C3.64623 18.6594 2.60156 17.6216 2.60156 16.3412V7.06851C2.60156 6.86357 2.68351 6.66703 2.82937 6.52211L7.49603 1.88575ZM14.2682 3.20488H8.82378V7.06851C8.82378 7.49528 8.47557 7.84124 8.04601 7.84124H4.15712V16.3412C4.15712 16.768 4.50534 17.114 4.9349 17.114H14.2682C14.6978 17.114 15.046 16.768 15.046 16.3412V3.97761C15.046 3.55084 14.6978 3.20488 14.2682 3.20488ZM5.25706 6.29579H7.26823V4.29768L5.25706 6.29579ZM5.71267 10.9322C5.71267 10.5054 6.0609 10.1594 6.49045 10.1594H12.7127C13.1422 10.1594 13.4905 10.5054 13.4905 10.9322C13.4905 11.3589 13.1422 11.7049 12.7127 11.7049H6.49045C6.0609 11.7049 5.71267 11.3589 5.71267 10.9322ZM5.71267 14.0231C5.71267 13.5963 6.0609 13.2503 6.49045 13.2503H12.7127C13.1422 13.2503 13.4905 13.5963 13.4905 14.0231C13.4905 14.4498 13.1422 14.7958 12.7127 14.7958H6.49045C6.0609 14.7958 5.71267 14.4498 5.71267 14.0231Z" fill="#333333" fill-opacity="0.9"/>
</svg>
