<svg width="21" height="20" viewBox="0 0 21 20" fill="none" xmlns="http://www.w3.org/2000/svg">
<path d="M19.6131 7.09164C19.4734 6.75483 19.2824 6.44166 19.0519 6.15236C18.8215 5.86339 18.5519 5.59769 18.2519 5.35337L18.2335 5.33848L18.2513 5.35337C17.3501 4.62094 16.1642 4.06111 14.7905 3.66808H14.7902C13.4152 3.27726 11.8465 3.05908 10.1787 3.05908C8.90776 3.05908 7.69502 3.1858 6.58117 3.41883C5.46733 3.65191 4.45241 3.99127 3.5771 4.42377L3.57645 4.42406C2.70212 4.85784 1.95869 5.386 1.40694 6.0302L1.41695 6.01789L1.40661 6.0302C1.13123 6.35277 0.903692 6.7067 0.744355 7.09164C0.584648 7.47696 0.495766 7.89231 0.496095 8.3199V11.6795C0.495766 12.1075 0.584648 12.5232 0.744355 12.9084C0.883955 13.2452 1.07501 13.5581 1.30546 13.8474C1.53624 14.1367 1.80547 14.4021 2.10548 14.6464L2.10609 14.6467C3.00725 15.3785 4.19287 15.9396 5.56655 16.332L5.57402 16.3337C6.94741 16.7231 8.51341 16.941 10.1787 16.9413H10.179C11.4496 16.941 12.6624 16.8143 13.7762 16.5812C14.89 16.3482 15.905 16.0085 16.7803 15.5763L16.7809 15.5757C17.6553 15.1419 18.3984 14.6134 18.9504 13.9699L18.9508 13.9693C19.2261 13.6474 19.4534 13.2938 19.6127 12.9084L19.6027 12.932L19.6131 12.9084C19.7724 12.5232 19.8613 12.1075 19.8613 11.6795V8.3199C19.8613 7.89231 19.7724 7.47696 19.6131 7.09164ZM2.66273 13.4292C2.56092 13.3332 2.46584 13.2356 2.38119 13.137C2.18045 12.9017 2.02985 12.6609 1.92931 12.4185C1.82878 12.1754 1.77839 11.9307 1.77839 11.6796V10.1565C1.97462 10.3986 2.20634 10.6272 2.46851 10.8411C2.53154 10.8919 2.59617 10.942 2.66277 10.9917L2.66273 13.4292ZM4.51934 14.5996C4.39168 14.544 4.26591 14.4871 4.14539 14.427C3.86447 14.288 3.60595 14.1397 3.36996 13.9849V11.454C3.72196 11.656 4.10662 11.8412 4.51934 12.008V14.5996ZM6.81843 15.3207C6.23599 15.1975 5.68941 15.0434 5.1855 14.8633H5.22719V12.2662C5.38915 12.3198 5.55526 12.3706 5.72461 12.4191C6.07501 12.5186 6.44092 12.6059 6.81843 12.6819V15.3207ZM9.82476 15.6553C9.0238 15.6391 8.25387 15.5661 7.526 15.4484V12.8057C8.2581 12.9188 9.02803 12.9851 9.82476 13.0006V15.6553ZM12.92 15.4325C12.1663 15.5583 11.3666 15.6371 10.5326 15.6533V13.0022C11.3614 12.986 12.1621 12.9139 12.92 12.7937V15.4325ZM15.2191 14.8472C14.9696 14.9377 14.7097 15.0217 14.4392 15.0987C14.178 15.173 13.9058 15.2393 13.6272 15.3V12.6644C14.1874 12.5487 14.72 12.4046 15.2191 12.2362V14.8472H15.2191ZM17.076 13.9247C16.7412 14.1542 16.3559 14.3675 15.9263 14.5614V11.9711C16.1332 11.8854 16.3339 11.7955 16.5256 11.7009C16.7173 11.6055 16.9005 11.5056 17.076 11.4022V13.9247ZM18.5791 11.6795C18.5791 11.9307 18.5286 12.1754 18.4278 12.4184C18.2985 12.7326 18.0816 13.0452 17.7833 13.3448V10.9549H17.7413C18.0347 10.7308 18.295 10.492 18.5138 10.2363C18.5361 10.2102 18.5574 10.1837 18.5791 10.1571L18.5791 11.6795ZM18.4278 9.05819C18.2532 9.48229 17.9203 9.90314 17.442 10.2926C16.726 10.877 15.6875 11.3838 14.4392 11.7384C13.1912 12.0939 11.7341 12.2992 10.1787 12.2992C7.80914 12.3002 5.66581 11.8208 4.14539 11.0668C3.38518 10.6908 2.78267 10.2474 2.38123 9.77642C2.18049 9.54146 2.02989 9.30062 1.92935 9.05823C1.82882 8.81514 1.77843 8.57082 1.77843 8.31998C1.77843 8.06917 1.82882 7.82485 1.92935 7.58176C2.10453 7.15738 2.43687 6.73653 2.91554 6.34769C3.6318 5.76294 4.67002 5.25579 5.91834 4.90121C7.16629 4.54602 8.62376 4.34109 10.1788 4.34109C12.5484 4.33978 14.6914 4.81947 16.2118 5.5732C16.9724 5.94879 17.5752 6.3929 17.976 6.8632C18.177 7.09817 18.3276 7.339 18.4279 7.58172C18.5287 7.82481 18.5791 8.06913 18.5791 8.31994C18.5791 8.57078 18.5286 8.8151 18.4278 9.05819Z" fill="currentColor"/>
<path d="M15.9522 8.80681L14.8781 8.52203C14.8499 8.51559 14.827 8.4936 14.8209 8.46516L14.5378 7.39108C14.5303 7.35972 14.5028 7.3374 14.4702 7.3374C14.4382 7.3374 14.4104 7.35972 14.4027 7.39108L14.1195 8.46516C14.1131 8.49364 14.0904 8.51559 14.0623 8.52203L12.9886 8.80681C12.9569 8.81293 12.9346 8.84075 12.9346 8.87304C12.9346 8.90538 12.9569 8.9332 12.9886 8.93964L14.0623 9.2241C14.0905 9.22992 14.1131 9.25319 14.1195 9.28163L14.4027 10.3551C14.4104 10.3864 14.4382 10.4087 14.4702 10.4087C14.5028 10.4087 14.5303 10.3864 14.5378 10.3551L14.8209 9.28163C14.827 9.25319 14.85 9.22992 14.8781 9.2241L15.9522 8.93964C15.9832 8.9332 16.0059 8.90538 16.0059 8.87304C16.0059 8.84075 15.9832 8.81293 15.9522 8.80681Z" fill="currentColor"/>
<path d="M10.5061 5.51466C9.6037 5.54376 9.15117 5.54117 8.24841 5.50498C8.19867 5.50301 8.16277 5.53083 8.16018 5.57605C8.04418 7.56648 7.98726 8.56141 7.87122 10.5534C7.86863 10.599 7.90675 10.6307 7.96658 10.6333C8.58781 10.6585 8.89877 10.665 9.52032 10.6643C9.58048 10.6646 9.6186 10.6333 9.6186 10.588C9.61958 9.95064 9.62024 9.63225 9.62118 8.99552C9.62118 8.96515 9.64055 8.94927 9.67806 8.94898C10.0546 8.94734 10.2421 8.94377 10.618 8.93183C12.1695 8.88205 12.9016 8.04782 12.7901 7.07263C12.676 6.08193 11.8837 5.4694 10.5061 5.51466ZM10.4916 7.81084C10.1658 7.82053 10.0032 7.82246 9.6774 7.82475C9.64154 7.82508 9.62311 7.81019 9.62311 7.77978C9.62377 7.34826 9.6241 7.1327 9.62443 6.7009C9.62471 6.67115 9.64125 6.65563 9.67613 6.65498C9.98836 6.65366 10.1448 6.65079 10.4567 6.6414C10.9335 6.62716 11.2147 6.8373 11.2351 7.19183C11.2554 7.54646 10.989 7.79566 10.4916 7.81084Z" fill="currentColor"/>
</svg>
