<svg width="48" height="38" viewBox="0 0 48 38" fill="none" xmlns="http://www.w3.org/2000/svg">
<path d="M23.9994 36.0322V18.5889M23.9994 18.5889L18.3926 24.4032M23.9994 18.5889L29.6062 24.4032M10.5431 33.1249C5.58867 33.1249 1.57227 29.0342 1.57227 23.9881C1.57227 19.8298 4.29936 16.3205 8.03124 15.2141C8.18983 15.167 8.30042 15.0192 8.30042 14.851C8.30042 7.28166 14.325 1.14551 21.7567 1.14551C29.1883 1.14551 35.213 7.28166 35.213 14.851C35.213 14.996 35.3466 15.1037 35.4856 15.072C36.1196 14.9273 36.7789 14.851 37.4558 14.851C42.4102 14.851 46.4266 18.9417 46.4266 23.9881C46.4266 29.0342 42.4102 33.1249 37.4558 33.1249" stroke="#333333" stroke-width="2" stroke-linecap="round" stroke-linejoin="round"/>
</svg>
